<?xml version="1.0" encoding="utf-8"?>
<!-- Generator: Adobe Illustrator 26.5.0, SVG Export Plug-In . SVG Version: 6.00 Build 0)  -->
<svg version="1.1" id="Layer_1" xmlns="http://www.w3.org/2000/svg" xmlns:xlink="http://www.w3.org/1999/xlink" x="0px" y="0px"
	 viewBox="0 0 100 100" style="enable-background:new 0 0 100 100;" xml:space="preserve">
<path d="M2,71.8c0.4-0.1,0.7-0.3,1.2-0.3c31.4,0,62.7,0,94.1,0c1.2,0,1.4,0.1,1,1.4c-1.5,4.8-4.8,7.5-9.5,8.3
	c-1.1,0.1-2.2,0.3-3.3,0.3c-23.4,0-46.7,0-70.2,0c-2.7,0-5.3-0.4-7.8-1.8c-2.4-1.4-4-3.5-5-6.2c-0.1-0.3-0.2-0.6-0.4-0.9
	C2,72.3,2,72,2,71.8z M43.5,77.5c4.7,0,9.4,0,14,0c0-1,0-2,0-3c-4.7,0-9.3,0-14,0C43.5,75.5,43.5,76.5,43.5,77.5z"/>
<path d="M49.9,18.5h36.7c1.6,0,2.9,1.3,2.9,2.9v44.3c0,2.2-0.6,2.8-2.7,2.8H13.2c-1.5,0-2.7-1.2-2.7-2.7V21.3c0-1.5,1.2-2.7,2.7-2.7
	C25.4,18.5,37.7,18.5,49.9,18.5z M17.5,25.5c0,12,0,24,0,36c22.1,0,44,0,66,0c0-12,0-24,0-36C61.5,25.5,39.6,25.5,17.5,25.5z"/>
</svg>
